# xmcd
#
# Track frame offsets:
#	150
#	17974
#	36351
#	52170
#	68526
#	83375
#	100611
#	120699
#	137429
#	158883
#	176239
#
# Disc length: 2555 seconds
#
# Revision: 1
# Processed by: cddbd v1.5.1PL0 Copyright (c) Steve Scherf et al.
# Submitted via: audiograbber 1.83.01
#
DISCID=8a09f90b
DTITLE=Tucker, Tanya - Complicated - Tucker, Tanya - Complicated
DYEAR=1997
DGENRE=Country
TTITLE0=Ridin' Out The Heartache
TTITLE1=Little Things
TTITLE2=It Hurts Like Love
TTITLE3=I Don't Believe That's How You Feel
TTITLE4=By The Way
TTITLE5=Love Thing
TTITLE6=Wishin' It All Away
TTITLE7=Complicated
TTITLE8=All I Have To Offer You Is Love
TTITLE9=What Your Love Does For Me
TTITLE10=You Don't Do It
EXTD=
EXTT0=
EXTT1=
EXTT2=
EXTT3=
EXTT4=
EXTT5=
EXTT6=
EXTT7=
EXTT8=
EXTT9=
EXTT10=
PLAYORDER=
